# xmcd CD database file generated by Grip 3.3.1
# 
# Track frame offsets:
#       150
#       12316
#       28016
#       37063
#       44274
#       57946
#       75143
#       86873
#       100083
#       111750
#       123693
#       135171
#       150737
#       165919
#       185528
#       211099
#       224659
#       241614
#       261573
# 
# Disc length: 3703 seconds
# 
# Revision: 1
# Processed by: cddbd v1.5.2PL0 Copyright (c) Steve Scherf et al.
# Submitted via: Grip 3.3.1
# 
DISCID=fa0e7513
DTITLE=Martin, Steve and the Steep Canyon Rangers - Live
DYEAR=2014
DGENRE=Bluegrass
TTITLE0=Katie Mae
TTITLE1=Jubilation Day
TTITLE2=Get Along Stray Dog
TTITLE3=Yes She Did
TTITLE4=Love Has Come for You
TTITLE5=The Crow
TTITLE6=Fighter
TTITLE7=Sarah Jane and the Iron Mountain Baby
TTITLE8=Hunger
TTITLE9=Atheists Don't Have No Songs
TTITLE10=The Great Remember (for Nancy)
TTITLE11=Sun's Gonna Shine
TTITLE12=When You Get to Asheville
TTITLE13=Pretty Little One
TTITLE14=Auden's Train
TTITLE15=The Dance at the Wedding
TTITLE16=Remember Me This Way
TTITLE17=Pitkin County Turnaround - So Long Now
TTITLE18=Daddy Played the Banjo
EXTD=
EXTT0=
EXTT1=
EXTT2=
EXTT3=
EXTT4=
EXTT5=
EXTT6=
EXTT7=
EXTT8=
EXTT9=
EXTT10=
EXTT11=
EXTT12=
EXTT13=
EXTT14=
EXTT15=
EXTT16=
EXTT17=
EXTT18=
PLAYORDER=
